<?xml version="1.0" encoding="utf-8"?>
<!-- Generator: Adobe Illustrator 19.2.1, SVG Export Plug-In . SVG Version: 6.00 Build 0)  -->
<svg version="1.1" id="Warstwa_1" xmlns="http://www.w3.org/2000/svg" xmlns:xlink="http://www.w3.org/1999/xlink" x="0px" y="0px"
	 viewBox="0 0 500 500" style="enable-background:new 0 0 500 500;" xml:space="preserve">
<style type="text/css">
	.st0{fill:#464646;}
	.st1{fill:url(#XMLID_2_);}
	.st2{fill:#21759A;}
	.st3{fill:none;}
	.st4{fill:#FFFFFF;}
</style>
<path id="XMLID_28_" class="st0" d="M41,0l419,0c4.9,0,8.8,4,8.8,8.8v263.2H32.1V8.8C32.1,4,36.1,0,41,0z"/>
<linearGradient id="XMLID_2_" gradientUnits="userSpaceOnUse" x1="32.1405" y1="297.4634" x2="468.8091" y2="297.4634">
	<stop  offset="0" style="stop-color:#2989AA"/>
	<stop  offset="1" style="stop-color:#23728E"/>
</linearGradient>
<path id="XMLID_27_" class="st1" d="M32.1,272.1c0,0,125.1-85.3,218.3-85.3c91.5,0,218.3,85.3,218.3,85.3v136H32.1V272.1z"/>
<rect id="XMLID_26_" x="185" y="230.1" class="st2" width="115.9" height="162.9"/>
<g id="XMLID_10_">
	<path id="XMLID_25_" class="st3" d="M278.9,300.5c0-15.7-12.7-28.4-28.4-28.4c-15.7,0-28.4,12.7-28.4,28.4
		c0,8.8,4.3,16.4,10.6,21.7L222,385.8h56.9l-10.6-63.7C274.6,317,278.9,309.4,278.9,300.5z"/>
	<path id="XMLID_24_" class="st4" d="M186.7,162.8c0-35.2,28.5-63.8,63.8-63.8s63.8,28.6,63.8,63.8v23.9
		c21.9,4.5,43.3,11.3,63.8,20.7v-44.6c0-70.3-57.2-127.5-127.5-127.5C180.2,35.3,123,92.5,123,162.8v44.6
		c20.4-9.3,41.8-16.1,63.8-20.7V162.8z"/>
	<path id="XMLID_23_" class="st0" d="M250.5,499.6c41.5-12.1,77.5-39.4,102.9-76.4H147.6C173,460.2,209,487.5,250.5,499.6z"/>
	<path id="XMLID_22_" class="st4" d="M138.1,408.1c3,5.2,6.1,10.2,9.5,15.1h205.7c3.4-4.9,6.5-9.9,9.5-15.1H138.1z"/>
	<path id="XMLID_11_" class="st4" d="M392.7,293.8c0-25-3.6-47.9-10.6-70.1c-81-48-181.8-48.5-262.8-0.5c-7,22.2-11,45.7-11,70.7
		c0,42.2,11,81.3,29.9,114.3h224.7C381.7,375.2,392.7,336,392.7,293.8z"/>
</g>
</svg>
